0
SECTION
2
HEADER
9
$INSUNITS
70
4
9
$ACADVER
1
AC1014
9
$HANDSEED
5
FFFF
0
ENDSEC
0
SECTION
2
TABLES
0
TABLE
2
VPORT
5
8
100
AcDbSymbolTable
0
ENDTAB
0
TABLE
2
LTYPE
5
5
100
AcDbSymbolTable
0
LTYPE
5
14
100
AcDbSymbolTableRecord
100
AcDbLinetypeTableRecord
2
BYBLOCK
70
0
0
LTYPE
5
15
100
AcDbSymbolTableRecord
100
AcDbLinetypeTableRecord
2
BYLAYER
70
0
0
ENDTAB
0
TABLE
2
LAYER
5
2
100
AcDbSymbolTable
70
2
0
LAYER
5
50
100
AcDbSymbolTableRecord
100
AcDbLayerTableRecord
2
0
70
0
6
CONTINUOUS
0
ENDTAB
0
TABLE
2
STYLE
5
3
100
AcDbSymbolTable
70
1
0
STYLE
5
11
100
AcDbSymbolTableRecord
100
AcDbTextStyleTableRecord
2
STANDARD
70
0
0
ENDTAB
0
TABLE
2
VIEW
5
6
100
AcDbSymbolTable
70
0
0
ENDTAB
0
TABLE
2
UCS
5
7
100
AcDbSymbolTable
70
0
0
ENDTAB
0
TABLE
2
APPID
5
9
100
AcDbSymbolTable
70
2
0
APPID
5
12
100
AcDbSymbolTableRecord
100
AcDbRegAppTableRecord
2
ACAD
70
0
0
ENDTAB
0
TABLE
2
DIMSTYLE
5
A
100
AcDbSymbolTable
70
1
0
ENDTAB
0
TABLE
2
BLOCK_RECORD
5
1
100
AcDbSymbolTable
70
1
0
BLOCK_RECORD
5
1F
100
AcDbSymbolTableRecord
100
AcDbBlockTableRecord
2
*MODEL_SPACE
0
BLOCK_RECORD
5
1B
100
AcDbSymbolTableRecord
100
AcDbBlockTableRecord
2
*PAPER_SPACE
0
ENDTAB
0
ENDSEC
0
SECTION
2
BLOCKS
0
BLOCK
5
20
100
AcDbEntity
100
AcDbBlockBegin
2
*MODEL_SPACE
0
ENDBLK
5
21
100
AcDbEntity
100
AcDbBlockEnd
0
BLOCK
5
1C
100
AcDbEntity
100
AcDbBlockBegin
2
*PAPER_SPACE
0
ENDBLK
5
1D
100
AcDbEntity
100
AcDbBlockEnd
0
ENDSEC
0
SECTION
2
ENTITIES
0
CIRCLE
5
100
100
AcDbEntity
8
0
100
AcDbCircle
10
95.999999999999943
20
59.832188569191274
30
-8.8817841970012523e-15
40
1.9500000000000028
210
0
220
2.7755575615628914e-17
230
1
0
CIRCLE
5
101
100
AcDbEntity
8
0
100
AcDbCircle
10
95.999999999999943
20
-56.217412752633145
30
0
40
1.9500000000000028
210
0
220
2.7755575615628914e-17
230
1
0
CIRCLE
5
102
100
AcDbEntity
8
0
100
AcDbCircle
10
-96.000000000000057
20
59.832188569191274
30
-8.8817841970012523e-15
40
1.9500000000000028
210
0
220
2.7755575615628914e-17
230
1
0
CIRCLE
5
103
100
AcDbEntity
8
0
100
AcDbCircle
10
-96.000000000000057
20
-56.217412752633145
30
0
40
1.9500000000000028
210
0
220
2.7755575615628914e-17
230
1
0
CIRCLE
5
104
100
AcDbEntity
8
0
100
AcDbCircle
10
25.291212783763434
20
55.557705378618337
30
6.6613381477509392e-15
40
2.5250000000000039
210
0
220
0
230
1
0
CIRCLE
5
105
100
AcDbEntity
8
0
100
AcDbCircle
10
37.791212783763442
20
55.557705378618358
30
2.2204460492503131e-15
40
2.5250000000000039
210
0
220
0
230
1
0
CIRCLE
5
106
100
AcDbEntity
8
0
100
AcDbCircle
10
50.291212783763442
20
55.557705378618337
30
6.6613381477509392e-15
40
2.5250000000000039
210
0
220
0
230
1
0
CIRCLE
5
107
100
AcDbEntity
8
0
100
AcDbCircle
10
62.250000000000519
20
15.832188569190935
30
-4.4408920985006262e-15
40
1.7499999999999982
210
0
220
0
230
1
0
CIRCLE
5
108
100
AcDbEntity
8
0
100
AcDbCircle
10
91.750000000000526
20
15.832188569189798
30
-4.4408920985006262e-15
40
1.7500000000000004
210
0
220
-2.775557561562892e-17
230
1
0
CIRCLE
5
109
100
AcDbEntity
8
0
100
AcDbCircle
10
-28.030925267652265
20
-36.85454747566844
30
2.2204460492503131e-15
40
1.7500000000000071
210
0
220
2.7755575615628914e-17
230
1
0
CIRCLE
5
110
100
AcDbEntity
8
0
100
AcDbCircle
10
18.710674732480825
20
2.9475117473642154
30
0
40
1.7500000000000071
210
0
220
2.7755575615628914e-17
230
1
0
LWPOLYLINE
5
111
100
AcDbEntity
8
0
100
AcDbPolyline
90
8
70
1
43
0.0
10
-14.289325267519182
20
15.74957097039686
10
-14.289325267519191
20
33.74957097039686
42
-0.41421356237309548
10
-8.2893252675191853
20
39.749570970396874
10
9.710674732480804
20
39.749570970396867
42
-0.41421356237309503
10
15.710674732480804
20
33.749570970396867
10
15.710674732480825
20
15.749570970396851
42
-0.41421356237309542
10
9.7106747324808236
20
9.7495709703968387
10
-8.2893252675191675
20
9.7495709703968458
42
-0.41421356237309503
0
LWPOLYLINE
5
112
100
AcDbEntity
8
0
100
AcDbPolyline
90
8
70
1
43
0.0
10
-71.772525267785383
20
-27.854547475668458
10
-71.772525267785369
20
-9.8545474756684523
42
-0.41421356237309531
10
-65.772525267785369
20
-3.8545474756684439
10
-47.772525267785397
20
-3.8545474756684595
42
-0.41421356237309503
10
-41.772525267785397
20
-9.8545474756684559
10
-41.772525267785383
20
-27.854547475668447
42
-0.41421356237309548
10
-47.772525267785383
20
-33.854547475668454
10
-65.772525267785369
20
-33.854547475668475
42
-0.41421356237309503
0
LWPOLYLINE
5
113
100
AcDbEntity
8
0
100
AcDbPolyline
90
8
70
1
43
0.0
10
-71.77252526778534
20
15.74957097039686
10
-71.772525267785326
20
33.749570970396796
42
-0.41421356237309503
10
-65.77252526778534
20
39.749570970396796
10
-47.772525267785362
20
39.749570970396789
42
-0.41421356237309503
10
-41.772525267785369
20
33.749570970396796
10
-41.772525267785383
20
15.749570970396871
42
-0.4142135623730947
10
-47.772525267785383
20
9.7495709703968778
10
-65.77252526778534
20
9.7495709703968458
42
-0.41421356237309503
0
LWPOLYLINE
5
114
100
AcDbEntity
8
0
100
AcDbPolyline
90
8
70
1
43
0.0
10
-14.289325267519182
20
-27.854547475668426
10
-14.289325267519185
20
-9.8545474756684399
42
-0.41421356237309509
10
-8.2893252675191835
20
-3.8545474756684373
10
9.710674732480804
20
-3.8545474756684373
42
-0.41421356237309503
10
15.710674732480804
20
-9.8545474756684381
10
15.710674732480827
20
-27.854547475668426
42
-0.41421356237309542
10
9.7106747324808236
20
-33.85454747566844
10
-8.2893252675191675
20
-33.85454747566844
42
-0.41421356237309503
0
LWPOLYLINE
5
115
100
AcDbEntity
8
0
100
AcDbPolyline
90
4
70
1
43
0.0
10
86.499999999999943
20
40.832188569191274
42
0.99999999999999989
10
67.500000000001165
20
40.832188569191274
10
67.500000000000554
20
-9.1678114308087366
42
0.99999999999999989
10
86.500000000000568
20
-9.1678114308087277
0
LWPOLYLINE
5
116
100
AcDbEntity
8
0
100
AcDbPolyline
90
8
70
1
43
0.0
10
-99.500000000000028
20
75.832188569191288
42
0.41421356237309459
10
-110.00000000000001
20
65.332188569191317
10
-110.00000000000007
20
-58.330999994931496
42
0.41421356237309553
10
-99.500000000000028
20
-68.83099999493156
10
99.499999999999915
20
-68.830999994931517
42
0.41421356237309553
10
109.99999999999993
20
-58.330999994931531
10
109.99999999999994
20
65.33218856919126
42
0.41421356237309609
10
99.499999999999957
20
75.832188569191288
0
ENDSEC
0
SECTION
2
OBJECTS
0
DICTIONARY
5
C
100
AcDbDictionary
3
ACAD_GROUP
350
D
3
ACAD_MLINESTYLE
350
17
0
DICTIONARY
5
D
100
AcDbDictionary
0
DICTIONARY
5
1A
330
C
100
AcDbDictionary
0
DICTIONARY
5
17
100
AcDbDictionary
0
ENDSEC
0
EOF
